<svg xmlns="http://www.w3.org/2000/svg" xmlns:xlink="http://www.w3.org/1999/xlink" width="80" zoomAndPan="magnify" viewBox="0 0 60 60" height="80" preserveAspectRatio="xMidYMid meet" version="1.0"><defs><clipPath id="cc98f643bc"><path d="M 10.007812 2.4375 L 49.007812 2.4375 L 49.007812 56.421875 L 10.007812 56.421875 Z M 10.007812 2.4375 " clip-rule="nonzero"/></clipPath></defs><g clip-path="url(#cc98f643bc)"><path fill="#000000" d="M 13.699219 55.285156 L 45.316406 55.285156 C 46.730469 55.285156 47.878906 54.136719 47.878906 52.714844 L 47.878906 6.140625 C 47.878906 4.722656 46.730469 3.574219 45.316406 3.574219 L 13.699219 3.574219 C 12.285156 3.574219 11.140625 4.722656 11.140625 6.140625 L 11.140625 52.714844 C 11.140625 54.136719 12.285156 55.285156 13.699219 55.285156 Z M 46.449219 56.421875 L 12.566406 56.421875 C 11.15625 56.421875 10.007812 55.269531 10.007812 53.851562 L 10.007812 5.007812 C 10.007812 3.585938 11.15625 2.4375 12.566406 2.4375 L 46.449219 2.4375 C 47.863281 2.4375 49.007812 3.585938 49.007812 5.007812 L 49.007812 53.851562 C 49.007812 55.269531 47.863281 56.421875 46.449219 56.421875 " fill-opacity="1" fill-rule="nonzero"/></g><path fill="#000000" d="M 15.320312 23.644531 L 14.03125 21.980469 C 13.90625 21.820312 13.917969 21.59375 14.058594 21.449219 C 14.222656 21.277344 14.449219 21.058594 14.605469 21.234375 L 15.3125 22.035156 C 15.480469 22.226562 15.777344 22.21875 15.933594 22.019531 L 17.355469 20.203125 C 17.464844 20.0625 17.667969 20.050781 17.789062 20.175781 L 18.199219 20.585938 C 18.351562 20.738281 18.355469 20.984375 18.210938 21.144531 L 15.941406 23.667969 C 15.773438 23.855469 15.476562 23.84375 15.320312 23.644531 " fill-opacity="1" fill-rule="nonzero"/><path fill="#000000" d="M 15.320312 31.714844 L 14.03125 30.050781 C 13.90625 29.890625 13.917969 29.664062 14.058594 29.519531 C 14.222656 29.347656 14.449219 29.128906 14.605469 29.308594 L 15.3125 30.109375 C 15.480469 30.296875 15.777344 30.289062 15.933594 30.089844 L 17.167969 28.511719 C 17.375 28.246094 17.765625 28.222656 18.003906 28.460938 L 18.199219 28.65625 C 18.351562 28.808594 18.355469 29.054688 18.210938 29.214844 L 15.941406 31.738281 C 15.773438 31.925781 15.476562 31.914062 15.320312 31.714844 " fill-opacity="1" fill-rule="nonzero"/><path fill="#000000" d="M 15.320312 40.597656 L 14.03125 38.933594 C 13.90625 38.773438 13.917969 38.546875 14.058594 38.402344 C 14.222656 38.230469 14.449219 38.011719 14.605469 38.191406 L 15.3125 38.992188 C 15.480469 39.179688 15.777344 39.171875 15.933594 38.972656 L 17.167969 37.394531 C 17.375 37.128906 17.765625 37.105469 18.003906 37.34375 L 18.199219 37.539062 C 18.351562 37.691406 18.355469 37.9375 18.210938 38.097656 L 15.941406 40.621094 C 15.773438 40.808594 15.476562 40.796875 15.320312 40.597656 " fill-opacity="1" fill-rule="nonzero"/><path fill="#000000" d="M 28.816406 13.308594 C 28.207031 13.914062 27.246094 14.636719 26.691406 14.59375 C 25.800781 14.519531 24.644531 13.3125 24.644531 13.3125 C 24.644531 13.3125 21.894531 11.335938 23.546875 9.402344 C 24.730469 8.023438 26.691406 10.238281 26.691406 10.238281 C 26.691406 10.238281 28.523438 7.890625 29.960938 8.695312 C 31.683594 9.664062 29.878906 12.25 28.816406 13.308594 Z M 30.785156 7.628906 C 28.707031 6.464844 26.699219 8.664062 26.699219 8.664062 C 25.945312 8.066406 24.914062 7.582031 23.941406 7.582031 C 22.351562 7.585938 21.164062 9.253906 21.398438 10.785156 C 21.667969 12.554688 23.480469 14.011719 24.789062 15.03125 C 25.195312 15.34375 25.617188 15.65625 26.097656 15.828125 C 27.546875 16.34375 28.84375 14.996094 29.777344 14.070312 C 31.316406 12.539062 33.285156 9.035156 30.785156 7.628906 " fill-opacity="1" fill-rule="nonzero"/><path fill="#000000" d="M 34.527344 15.070312 C 33.917969 15.675781 32.953125 16.402344 32.402344 16.355469 C 31.511719 16.285156 30.355469 15.078125 30.355469 15.078125 C 30.355469 15.078125 27.25 13.09375 28.90625 11.164062 C 30.089844 9.785156 32.402344 12 32.402344 12 C 32.402344 12 33.789062 9.824219 35.222656 10.628906 C 36.949219 11.597656 35.589844 14.015625 34.527344 15.070312 Z M 36.496094 9.394531 C 34.417969 8.226562 32.417969 10.722656 32.417969 10.722656 C 31.664062 10.125 30.625 9.347656 29.652344 9.347656 C 28.0625 9.351562 26.875 11.015625 27.109375 12.546875 C 27.378906 14.316406 29.1875 15.777344 30.5 16.792969 C 30.90625 17.105469 31.324219 17.421875 31.808594 17.59375 C 33.253906 18.105469 34.550781 16.761719 35.488281 15.832031 C 37.027344 14.300781 38.996094 10.796875 36.496094 9.394531 " fill-opacity="1" fill-rule="nonzero"/><path fill="#000000" d="M 43.464844 21.921875 L 20.921875 21.921875 C 20.519531 21.921875 20.191406 21.59375 20.191406 21.191406 C 20.191406 20.785156 20.519531 20.460938 20.921875 20.460938 L 43.464844 20.460938 C 43.867188 20.460938 44.195312 20.785156 44.195312 21.191406 C 44.195312 21.59375 43.867188 21.921875 43.464844 21.921875 " fill-opacity="1" fill-rule="nonzero"/><path fill="#000000" d="M 43.464844 26.539062 L 20.921875 26.539062 C 20.519531 26.539062 20.191406 26.214844 20.191406 25.808594 C 20.191406 25.40625 20.519531 25.078125 20.921875 25.078125 L 43.464844 25.078125 C 43.867188 25.078125 44.195312 25.40625 44.195312 25.808594 C 44.195312 26.214844 43.867188 26.539062 43.464844 26.539062 " fill-opacity="1" fill-rule="nonzero"/><path fill="#000000" d="M 43.464844 31.160156 L 20.921875 31.160156 C 20.519531 31.160156 20.191406 30.832031 20.191406 30.429688 C 20.191406 30.023438 20.519531 29.695312 20.921875 29.695312 L 43.464844 29.695312 C 43.867188 29.695312 44.195312 30.023438 44.195312 30.429688 C 44.195312 30.832031 43.867188 31.160156 43.464844 31.160156 " fill-opacity="1" fill-rule="nonzero"/><path fill="#000000" d="M 43.464844 35.777344 L 20.921875 35.777344 C 20.519531 35.777344 20.191406 35.453125 20.191406 35.046875 C 20.191406 34.644531 20.519531 34.316406 20.921875 34.316406 L 43.464844 34.316406 C 43.867188 34.316406 44.195312 34.644531 44.195312 35.046875 C 44.195312 35.453125 43.867188 35.777344 43.464844 35.777344 " fill-opacity="1" fill-rule="nonzero"/><path fill="#000000" d="M 43.464844 40.398438 L 20.921875 40.398438 C 20.519531 40.398438 20.191406 40.070312 20.191406 39.667969 C 20.191406 39.261719 20.519531 38.933594 20.921875 38.933594 L 43.464844 38.933594 C 43.867188 38.933594 44.195312 39.261719 44.195312 39.667969 C 44.195312 40.070312 43.867188 40.398438 43.464844 40.398438 " fill-opacity="1" fill-rule="nonzero"/><path fill="#000000" d="M 27.667969 49.992188 L 21.199219 49.992188 C 20.8125 49.992188 20.503906 49.679688 20.503906 49.292969 C 20.503906 48.90625 20.8125 48.59375 21.199219 48.59375 L 27.667969 48.59375 C 28.050781 48.59375 28.363281 48.90625 28.363281 49.292969 C 28.363281 49.679688 28.050781 49.992188 27.667969 49.992188 " fill-opacity="1" fill-rule="nonzero"/><path fill="#000000" d="M 39.832031 43.542969 C 37.128906 43.257812 34.863281 45.53125 35.148438 48.242188 C 35.355469 50.21875 36.9375 51.808594 38.90625 52.019531 C 41.609375 52.304688 43.875 50.03125 43.589844 47.320312 C 43.382812 45.34375 41.796875 43.753906 39.832031 43.542969 Z M 39.859375 53.148438 C 36.515625 53.449219 33.726562 50.648438 34.023438 47.289062 C 34.25 44.714844 36.316406 42.644531 38.878906 42.414062 C 42.222656 42.117188 45.011719 44.917969 44.714844 48.273438 C 44.488281 50.847656 42.421875 52.917969 39.859375 53.148438 " fill-opacity="1" fill-rule="nonzero"/><path fill="#000000" d="M 42.097656 48.3125 C 41.867188 48.238281 41.730469 48.007812 41.726562 47.765625 C 41.71875 46.472656 40.671875 45.421875 39.386719 45.414062 C 39.144531 45.414062 38.914062 45.273438 38.839844 45.042969 C 38.710938 44.648438 38.996094 44.285156 39.367188 44.285156 C 41.289062 44.285156 42.851562 45.855469 42.851562 47.78125 C 42.851562 48.15625 42.488281 48.445312 42.097656 48.3125 " fill-opacity="1" fill-rule="nonzero"/><path fill="#000000" d="M 39.367188 51.277344 C 37.453125 51.277344 35.898438 49.71875 35.886719 47.796875 C 35.886719 47.527344 36.074219 47.277344 36.339844 47.226562 C 36.699219 47.160156 37.011719 47.433594 37.011719 47.78125 C 37.011719 49.085938 38.0625 50.144531 39.359375 50.148438 C 39.644531 50.148438 39.898438 50.367188 39.925781 50.648438 C 39.964844 50.988281 39.699219 51.277344 39.367188 51.277344 " fill-opacity="1" fill-rule="nonzero"/></svg>