<svg xmlns="http://www.w3.org/2000/svg" xmlns:xlink="http://www.w3.org/1999/xlink" width="80" zoomAndPan="magnify" viewBox="0 0 60 60" height="80" preserveAspectRatio="xMidYMid meet" version="1.0"><defs><clipPath id="18d7d5ed5e"><path d="M 8.117188 3.003906 L 51.617188 3.003906 L 51.617188 57 L 8.117188 57 Z M 8.117188 3.003906 " clip-rule="nonzero"/></clipPath></defs><g clip-path="url(#18d7d5ed5e)"><path fill="#000000" d="M 28.414062 30.710938 C 28.21875 37.847656 28.386719 45.351562 28.328125 52.628906 C 27.761719 52.980469 27.394531 53.542969 26.65625 53.722656 L 26.65625 52.289062 C 22.578125 52.546875 18.3125 52.605469 15.347656 53.976562 C 19.140625 55.355469 24.496094 55.664062 29.667969 55.664062 C 34.859375 55.664062 40.1875 55.394531 43.90625 53.890625 C 40.996094 52.71875 37.058594 52.582031 33.269531 52.289062 L 33.269531 53.722656 C 32.773438 53.160156 31.800781 52.828125 31.597656 52.121094 C 31.410156 51.484375 31.597656 50.417969 31.597656 49.507812 L 31.597656 30.710938 Z M 26.65625 20.175781 C 26.730469 22.300781 30.105469 22.226562 29.921875 19.921875 C 29.851562 19.03125 29.195312 18.28125 27.910156 18.574219 C 27.140625 18.75 26.621094 19.265625 26.65625 20.175781 Z M 31.011719 18.996094 C 32.167969 22.339844 28.300781 23.917969 26.402344 22.28125 C 26.167969 22.082031 25.980469 21.691406 25.734375 21.777344 C 25.601562 24.664062 27.363281 26.757812 30.003906 26.917969 C 32.769531 27.089844 34.976562 24.683594 34.945312 22.199219 C 34.914062 19.609375 32.933594 17.742188 30.003906 17.5625 C 30.207031 18.03125 30.796875 18.382812 31.011719 18.996094 Z M 37.289062 15.960938 C 36.460938 16.78125 35.554688 17.527344 34.863281 18.488281 C 38.144531 22.695312 34.710938 29.445312 28.746094 28.015625 C 27.574219 27.734375 26.6875 26.351562 25.902344 27.339844 C 26.253906 27.855469 26.789062 28.191406 27.242188 28.605469 C 28.769531 28.863281 30.804688 28.535156 32.179688 28.519531 C 32.480469 28.515625 32.847656 28.371094 32.9375 28.6875 C 37.699219 24.015625 42.917969 19.347656 47.425781 14.695312 C 44.390625 15.460938 40.8125 15.683594 37.289062 15.960938 Z M 24.726562 26.328125 C 24.917969 26.070312 25.140625 25.84375 25.398438 25.652344 C 21.894531 20.136719 28.273438 13.785156 33.523438 17.308594 C 33.957031 17.035156 34.816406 16.320312 34.695312 16.042969 C 26.660156 16.332031 18.132812 15.976562 11.664062 14.695312 C 16.039062 18.550781 20.3125 22.511719 24.726562 26.328125 Z M 42.566406 10.566406 C 41.75 11.417969 40.777344 12.453125 39.972656 13.261719 C 39.726562 13.507812 39.273438 13.691406 39.386719 14.023438 C 42.980469 13.679688 46.675781 13.4375 49.265625 12.082031 C 47.386719 11.222656 45.046875 10.824219 42.566406 10.566406 Z M 26.65625 9.890625 C 20.566406 10.175781 14.542969 10.222656 10.15625 12.167969 C 15.808594 14.160156 25.136719 14.707031 33.019531 14.359375 C 34.1875 14.308594 35.613281 14.53125 36.535156 14.273438 C 37.171875 14.097656 38.070312 12.902344 38.632812 12.335938 C 38.972656 11.992188 39.3125 11.648438 39.636719 11.324219 C 39.960938 11 40.5 10.550781 40.390625 10.3125 C 36.101562 9.894531 31.292969 9.671875 26.65625 9.890625 Z M 44.242188 8.964844 C 46.929688 9.40625 49.78125 9.683594 51.277344 11.324219 C 51.234375 11.765625 51.652344 12.46875 51.613281 12.839844 C 51.53125 13.605469 50.207031 14.628906 49.519531 15.285156 C 44.191406 20.355469 38.328125 25.824219 33.269531 30.796875 L 33.269531 51.027344 C 36.609375 51.242188 40.511719 51.414062 43.40625 52.289062 C 44.289062 52.558594 45.511719 52.835938 45.414062 54.0625 C 45.152344 55.289062 43.714844 55.539062 42.484375 55.832031 C 36.367188 57.285156 28.046875 57.222656 20.960938 56.503906 C 19.644531 56.375 18.371094 56.21875 16.9375 55.914062 C 15.855469 55.6875 14.050781 55.0625 13.839844 54.398438 C 13.132812 52.148438 17.726562 51.828125 19.199219 51.617188 C 21.699219 51.261719 24.121094 51.117188 26.65625 51.027344 C 26.65625 44.824219 26.652344 39.425781 26.65625 33.070312 C 26.65625 32.242188 26.835938 31.140625 26.65625 30.542969 C 26.488281 29.992188 25.140625 29.003906 24.394531 28.351562 C 19.664062 24.21875 15.289062 20.195312 10.574219 15.960938 C 9.855469 15.3125 8.554688 14.503906 8.3125 13.851562 C 8.238281 13.648438 8.039062 12.121094 8.144531 11.660156 C 8.558594 9.835938 13.015625 9.234375 15.011719 8.964844 C 22.652344 7.921875 31.535156 7.746094 39.886719 8.457031 C 40.613281 8.519531 41.488281 8.800781 41.980469 8.710938 C 42.851562 8.554688 44.320312 6.527344 44.914062 5.929688 C 45.839844 4.996094 46.890625 3.90625 47.84375 3.148438 C 48.160156 2.898438 48.90625 2.96875 49.015625 3.570312 C 49.191406 4.511719 47.332031 5.855469 46.757812 6.433594 C 45.703125 7.492188 44.941406 8.136719 44.242188 8.964844 " fill-opacity="1" fill-rule="evenodd"/></g></svg>