<svg xmlns="http://www.w3.org/2000/svg" xmlns:xlink="http://www.w3.org/1999/xlink" width="80" zoomAndPan="magnify" viewBox="0 0 60 60" height="80" preserveAspectRatio="xMidYMid meet" version="1.0"><defs><clipPath id="967034fb4d"><path d="M 4.046875 4.046875 L 55.796875 4.046875 L 55.796875 55.796875 L 4.046875 55.796875 Z M 4.046875 4.046875 " clip-rule="nonzero"/></clipPath></defs><g clip-path="url(#967034fb4d)"><path fill="#dbbf97" d="M 53.546875 15.296875 L 44.277344 15.296875 C 46.796875 13.25 47.921875 10.796875 47.921875 8.851562 C 47.921875 6.453125 46.144531 4.046875 42.296875 4.046875 C 36.75 4.046875 32.320312 9.324219 29.921875 13.046875 C 27.480469 9.3125 23.046875 4.046875 17.546875 4.046875 C 13.699219 4.046875 11.921875 6.453125 11.921875 8.851562 C 11.921875 10.796875 13.046875 13.25 15.566406 15.296875 L 6.296875 15.296875 C 6 15.296875 5.710938 15.355469 5.4375 15.46875 C 5.160156 15.582031 4.917969 15.746094 4.707031 15.957031 C 4.496094 16.167969 4.332031 16.410156 4.21875 16.6875 C 4.105469 16.960938 4.046875 17.25 4.046875 17.546875 L 4.046875 26.546875 C 4.046875 26.84375 4.105469 27.132812 4.21875 27.410156 C 4.332031 27.683594 4.496094 27.925781 4.707031 28.136719 C 4.917969 28.347656 5.160156 28.511719 5.4375 28.625 C 5.710938 28.738281 6 28.796875 6.296875 28.796875 L 8.546875 28.796875 L 8.546875 53.546875 C 8.546875 53.84375 8.605469 54.132812 8.71875 54.410156 C 8.832031 54.683594 8.996094 54.925781 9.207031 55.136719 C 9.417969 55.347656 9.660156 55.511719 9.9375 55.625 C 10.210938 55.738281 10.5 55.796875 10.796875 55.796875 L 49.046875 55.796875 C 49.34375 55.796875 49.632812 55.738281 49.910156 55.625 C 50.183594 55.511719 50.425781 55.347656 50.636719 55.136719 C 50.847656 54.925781 51.011719 54.683594 51.125 54.410156 C 51.238281 54.132812 51.296875 53.84375 51.296875 53.546875 L 51.296875 28.796875 L 53.546875 28.796875 C 53.84375 28.796875 54.132812 28.738281 54.410156 28.625 C 54.683594 28.511719 54.925781 28.347656 55.136719 28.136719 C 55.347656 27.925781 55.511719 27.683594 55.625 27.410156 C 55.738281 27.132812 55.796875 26.84375 55.796875 26.546875 L 55.796875 17.546875 C 55.796875 17.25 55.738281 16.960938 55.625 16.6875 C 55.511719 16.410156 55.347656 16.167969 55.136719 15.957031 C 54.925781 15.746094 54.683594 15.582031 54.410156 15.46875 C 54.132812 15.355469 53.84375 15.296875 53.546875 15.296875 Z M 42.296875 8.546875 C 42.542969 8.546875 43.421875 8.546875 43.421875 8.917969 C 43.421875 10.324219 40.664062 13.609375 34.175781 14.835938 C 36.257812 11.921875 39.328125 8.546875 42.296875 8.546875 Z M 17.546875 8.546875 C 20.550781 8.546875 23.621094 11.921875 25.714844 14.835938 C 19.179688 13.609375 16.421875 10.324219 16.421875 8.917969 C 16.421875 8.546875 17.253906 8.546875 17.546875 8.546875 Z M 8.546875 19.796875 L 27.671875 19.796875 L 27.671875 24.296875 L 8.546875 24.296875 Z M 13.046875 28.796875 L 27.671875 28.796875 L 27.671875 51.296875 L 13.046875 51.296875 Z M 46.796875 51.296875 L 32.171875 51.296875 L 32.171875 28.796875 L 46.796875 28.796875 Z M 51.296875 24.296875 L 32.171875 24.296875 L 32.171875 19.796875 L 51.296875 19.796875 Z M 51.296875 24.296875 " fill-opacity="1" fill-rule="nonzero"/></g></svg>