<svg xmlns="http://www.w3.org/2000/svg" xmlns:xlink="http://www.w3.org/1999/xlink" width="80" zoomAndPan="magnify" viewBox="0 0 60 60" height="80" preserveAspectRatio="xMidYMid meet" version="1.0"><defs><clipPath id="dc2c618aa9"><path d="M 3.585938 11.144531 L 56.085938 11.144531 L 56.085938 48.644531 L 3.585938 48.644531 Z M 3.585938 11.144531 " clip-rule="nonzero"/></clipPath></defs><g clip-path="url(#dc2c618aa9)"><path fill="#dbbf97" d="M 9.230469 11.144531 C 6.125 11.144531 3.609375 13.660156 3.609375 16.769531 C 3.679688 25.300781 3.609375 34.328125 3.609375 43.019531 C 3.609375 46.015625 5.933594 48.4375 8.878906 48.617188 L 50.675781 48.644531 C 53.671875 48.523438 56.058594 46.054688 56.058594 43.019531 L 56.058594 15.804688 C 55.605469 13.152344 53.304688 11.144531 50.527344 11.144531 C 36.769531 11.152344 22.992188 11.144531 9.226562 11.144531 Z M 9.140625 14.105469 L 50.703125 14.105469 L 30.59375 34.230469 C 30.226562 34.597656 29.644531 34.597656 29.277344 34.230469 Z M 53.25 15.539062 L 53.25 42.816406 C 53.25 44.441406 52.664062 45.359375 51.492188 45.6875 L 37.328125 31.476562 Z M 6.742188 15.65625 L 22.402344 31.332031 L 8.089844 45.65625 C 7.109375 45.328125 6.765625 44.535156 6.742188 43.460938 Z M 24.390625 33.292969 L 29.277344 38.214844 C 29.644531 38.582031 30.230469 38.582031 30.597656 38.214844 L 35.335938 33.46875 L 47.691406 45.832031 L 11.863281 45.832031 Z M 24.390625 33.292969 " fill-opacity="1" fill-rule="nonzero"/></g></svg>